# xmcd
#
# Track frame offsets:
#	150
#	13572
#	19998
#	52886
#	71415
#	106156
#	117979
#	130263
#	139982
#	154074
#	188359
#	203355
#	216147
#	227948
#	239035
#	255494
#	279391
#	289060
#	304834
#	317989
#
# Disc length: 4413
#
# Revision: 1
# Processed by: cddbd v1.5.1PL0 Copyright (c) Steve Scherf et al.
# Submitted via: EasyCDDAExtractor 4.5.0.1
# Normalized: r0:TDELIM( - )
#
DISCID=1d113b14
DTITLE=Various Artist - Guitar Masters - 3
DYEAR=1900
DGENRE=
TTITLE0=Robert Johnson - I Believe I'll Dust My Broom
TTITLE1=Eric Clapton and Jimmy Page - Choker
TTITLE2=Roy Buchanan - Blues in E
TTITLE3=Robert Cray - The Score
TTITLE4=Luther Alison - Goin' Down
TTITLE5=Otis Rush - All Your Love (I Miss Your Loving)
TTITLE6=John Lee Hooker - House Rent Boogie
TTITLE7=Pat Hare - Bonus Pay
TTITLE8=Pee Wee Crayton - The Telephone is Ringing
TTITLE9=B B King - Outside Help (live)
TTITLE10=Elmore James - It Hurts Me Too
TTITLE11=Big Mac feat Hubert Sumlin - Rough Dried Woman
TTITLE12=Robert Lockwood - Aw Baby (Sweet Home Chicago)
TTITLE13=Johnny Winter - Gangster of Love
TTITLE14=The Yardbirds - feat Jeff Beck - i Aint Done wong
TTITLE15=John Mayall's Bluesbreakers feat Walter Trout - One Life To Live
TTITLE16=Eric Clapton - Tribute to Elmore
TTITLE17=Albert Lee - Water On My Fire
TTITLE18=Junior Parker feat Floyd Murphy - Feeling Good
TTITLE19=Tarheel Slim feat Jimmy Spruill - Number Nine Train
EXTD=
EXTT0=
EXTT1=
EXTT2=
EXTT3=
EXTT4=
EXTT5=
EXTT6=
EXTT7=
EXTT8=
EXTT9=
EXTT10=
EXTT11=
EXTT12=
EXTT13=
EXTT14=
EXTT15=
EXTT16=
EXTT17=
EXTT18=
EXTT19=
PLAYORDER=
